<?xml version="1.0" encoding="utf-8"?>
<!-- Generator: Adobe Illustrator 24.0.2, SVG Export Plug-In . SVG Version: 6.00 Build 0)  -->
<svg version="1.1" id="Ebene_1" xmlns="http://www.w3.org/2000/svg" xmlns:xlink="http://www.w3.org/1999/xlink" x="0px" y="0px"
	 viewBox="0 0 326.2 326.2" style="enable-background:new 0 0 326.2 326.2;" xml:space="preserve">
<style type="text/css">
	.st0{fill:#DEDC25;}
	.st1{fill:#4C5859;}
</style>
<g>
	<polygon class="st0" points="0,0 0,326.2 326.2,326.2 326.2,0 	"/>
	<path class="st1" d="M225.6,246.6c0.1,0,0.3-0.1,0.4-0.1c3.8,0,7.5,0,11.3,0.1c1.8,0,3.5,0.6,4.8,1.7c1.7,1.4,2.2,3.3,2.3,5.3
		c0,2.3,0,4.7,0,7c0,3.3-1.5,5.2-4.7,6.1c-0.2,0.1-0.4,0.1-0.8,0.3c0.3,0.1,0.4,0.1,0.6,0.2c3.4,1,4.6,2.7,4.7,6.2
		c0.1,4.5,0.4,9.1,0.6,13.6c0.1,1.1,0.3,2.3,0.5,3.5c-2.5,0-4.9,0-7.6,0c-0.2-1.8-0.6-3.6-0.6-5.4c-0.1-3.7-0.1-7.3-0.1-11
		c0-0.4,0-0.8-0.1-1.2c-0.3-2.1-1.6-3-3.8-2.6c0,6.7,0,13.4,0,20.1c-2.5,0-4.9,0-7.4,0C225.6,276,225.6,261.3,225.6,246.6
		L225.6,246.6z M233.1,264.5c3,0.3,3.8-0.4,3.8-3.3c0-2.2,0-4.5,0-6.7c0-1.7-0.6-2.3-2.3-2.4c-0.5,0-1,0-1.5,0
		C233.1,256.3,233.1,260.4,233.1,264.5L233.1,264.5z"/>
	<path class="st1" d="M73.1,269.5c-2.7,0-5.4,0-8.1,0c0,5,0,9.9,0,14.9c2.8,0,5.6,0,8.5,0c0,2,0,4,0,6c-5.3,0-10.6,0-15.9,0
		c0-14.6,0-29.2,0-43.9c5.3,0,10.6,0,15.9,0c0,1.9,0,3.9,0,5.9c-2.8,0-5.6,0-8.5,0c0,0.4,0,0.6,0,0.9c0,3,0,6.1,0,9.1
		c0,0.8,0.3,1,1,1c2,0,4,0,6,0c0.4,0,0.7,0,1.1,0C73.1,265.5,73.1,267.4,73.1,269.5L73.1,269.5z"/>
	<path class="st1" d="M265.1,269.5c-2.7,0-5.4,0-8.1,0c0,5,0,9.9,0,14.9c2.8,0,5.6,0,8.5,0c0,2,0,4,0,6c-5.3,0-10.6,0-15.9,0
		c0-14.6,0-29.2,0-43.9c5.3,0,10.5,0,15.9,0c0,1.9,0,3.9,0,5.9c-2.8,0-5.6,0-8.5,0c0,0.4,0,0.6,0,0.9c0,3,0,6.1,0,9.1
		c0,0.8,0.3,1,1,1c2,0,4,0,6,0c0.4,0,0.7,0,1.1,0C265.1,265.5,265.1,267.4,265.1,269.5L265.1,269.5z"/>
	<path class="st1" d="M48.7,290.3l5.6-43.8h-6.9c-0.8,9.2-1.8,20.2-3,29.4c-0.7-9.2-1.7-20.2-2.5-29.4h-7.3l5.1,43.8H48.7
		L48.7,290.3z"/>
	<path class="st1" d="M92.8,246.5c2,0,3.9,0,5.9,0c0,14.6,0,29.2,0,43.9c-3.6,0-7.1,0-10.7,0c-1.7-11-3.4-21.9-5.1-32.8
		c0,0,0,0-0.1,0c0,10.9,0,21.8,0,32.8c-2.1,0-4,0-6.1,0c0-14.6,0-29.2,0-43.8c3.5,0,7.1,0,10.8,0c1.7,11.2,3.5,22.5,5.1,33.1
		C92.8,269.1,92.8,257.8,92.8,246.5L92.8,246.5z"/>
	<path class="st1" d="M107.9,252.4c0,12.7,0,25.3,0,38c2.4,0,4.8,0,7.3,0c0-0.5,0-1,0-1.4c0-11.7,0-23.5,0-35.2c0-1.3,0-1.3,1.4-1.3
		c1.6,0,3.1,0,4.8,0c0-2,0-3.9,0-5.9c-6.4,0-12.8,0-19.3,0c0,2,0,3.9,0,5.9C103.9,252.4,105.9,252.4,107.9,252.4L107.9,252.4z"/>
	<path class="st1" d="M131.9,290.4c-2.5,0-4.9,0-7.3,0c0-14.7,0-29.2,0-43.9c2.4,0,4.8,0,7.3,0C131.9,261.1,131.9,275.7,131.9,290.4
		L131.9,290.4z"/>
	<path class="st1" d="M145.6,284.1c3.1,0,6,0,8.9,0c0,2.1,0,4.1,0,6.1c-5.4,0-10.8,0-16.3,0c0-14.6,0-29.1,0-43.8c2.4,0,4.8,0,7.3,0
		C145.6,259,145.6,271.5,145.6,284.1L145.6,284.1z"/>
	<path class="st1" d="M162.9,246.5c3.7,0,7.2,0,10.8,0c1.8,14.6,3.6,29.2,5.4,43.8c-2.5,0-4.9,0-7.4,0c-0.3-2.4-0.5-4.7-0.8-7
		c-0.1-1.4-0.3-2.7-0.5-4.1c0-0.2-0.4-0.6-0.6-0.6c-1.2-0.1-2.4,0-3.6,0c-0.6,0-0.6,0.4-0.7,0.9c-0.5,3.6-0.9,7.2-1.4,10.9
		c-2.2,0-4.4,0-6.6,0C159.3,275.7,161.1,261.1,162.9,246.5L162.9,246.5z M168.2,255.4c-0.1,0-0.2,0-0.2,0
		c-0.5,5.7-1.1,11.4-1.6,17.2c0.9,0,1.6,0,2.4,0c0.8,0.1,1-0.3,0.9-1c-0.1-1.1-0.3-2.3-0.3-3.4c-0.2-2.9-0.4-5.9-0.7-8.8
		C168.5,258,168.4,256.7,168.2,255.4L168.2,255.4z"/>
	<path class="st1" d="M185,252.4c0,12.7,0,25.3,0,38c2.5,0,4.8,0,7.3,0c0-0.5,0-1,0-1.4c0-11.7,0-23.5,0-35.2c0-1.3,0-1.3,1.4-1.3
		c1.6,0,3.1,0,4.8,0c0-2,0-3.9,0-5.9c-6.4,0-12.8,0-19.3,0c0,2,0,3.9,0,5.9C181,252.4,182.9,252.4,185,252.4L185,252.4z"/>
	<path class="st1" d="M285.3,246.5c2,0,3.9,0,5.9,0c0,14.6,0,29.2,0,43.9c-3.6,0-7.1,0-10.7,0c-1.7-11-3.4-21.9-5.1-32.8
		c0,0,0,0-0.1,0c0,10.9,0,21.8,0,32.8c-2.1,0-4,0-6.1,0c0-14.6,0-29.2,0-43.8c3.5,0,7.1,0,10.8,0c1.7,11.2,3.5,22.5,5.1,33.1
		C285.3,269.1,285.3,257.8,285.3,246.5L285.3,246.5z"/>
	<path class="st1" d="M219.6,268.5c0,4.9,0,9.7,0,14.6c0,3.7-1.6,5.8-5.2,6.9c-2.7,0.8-5.4,0.8-8-0.1c-3.2-1-4.8-3.3-4.8-6.8
		c0-9.7,0-19.4,0-29.1c0-3.7,2.1-6.2,5.7-7c2.7-0.6,5.3-0.5,7.9,0.4c2.8,1,4.3,3.3,4.3,6.2C219.6,258.5,219.6,263.5,219.6,268.5
		L219.6,268.5z M208.9,268.5c0,1.5,0,3,0,4.5c0,3.4,0,6.8,0,10.1c0,1.3,0.5,1.8,1.6,1.9c1.3,0,1.7-0.3,1.9-1.7c0-0.3,0-0.5,0-0.8
		c0-9.3,0-18.7,0-28c0-0.5,0-1-0.2-1.4s-0.6-0.9-1-1c-1.6-0.4-2.4,0.3-2.4,2C208.9,258.9,208.9,263.7,208.9,268.5L208.9,268.5z"/>
	<path class="st1" d="M78.8,35.5c6.8,0,10,0.6,14.3,3.3c10,5.2,14.7,15.1,16.1,26.5c0.4,3.1,0.4,6.4,0.4,9.5c0,34.4,0,68.7,0,103.1
		c0,19.2-11.5,32.2-30.7,33.3c-14.5,0.8-29.1,0.2-44.2,0.2c0-58.8,0-117.3,0-175.9C49.4,35.5,64.1,35.5,78.8,35.5L78.8,35.5z
		 M65.1,58c0,44,0,87.3,0,130.6c12.5,1.1,14.8-1,14.8-13.1c0-0.1,0-0.3,0-0.4c0-34.9,0-69.7-0.1-104.5c0-2.5-0.1-5.3-1.1-7.5
		c-0.8-1.8-2.8-3.7-4.7-4.3C71.4,57.9,68.4,58.2,65.1,58L65.1,58z"/>
	<path class="st1" d="M291.2,35.5c-1.5,6.3-2.8,12.6-4.4,18.8C281.5,74.2,276,94,271,113.9c-0.8,3.3,0.4,7.2,1.2,10.8
		c6.4,28.1,19.6,85.6,19.7,86.8c-8,0-15.9,0-23.7,0c-6.7,0-6.7,0-8.2-6.6c-5.4-23.7-10.9-47.4-16.4-71.1c-0.2-0.8-0.5-1.6-1.4-2.4
		c0,26.5,0,53,0,79.9c-10.1,0-19.7,0-29.9,0c0-58.5,0-117.1,0-175.6c9.8,0,19.9,0,29.7,0c0,0,0,8.4,0,12.6c0,20,0,40,0,60.1
		c0.3,0,0.5,0.1,0.7,0.1c6.6-24.3,13.2-48.5,19.7-72.8C272.1,35.5,281.7,35.5,291.2,35.5L291.2,35.5z"/>
	<path class="st1" d="M166.4,35.5c0,0,0,3.3,0,4.9c0,47.3,0,94.5,0,141.8c0,1.4,0,2.8,0,4.7c4.6,0,8.8,0,13,0c6.6,0,13.1,0,19.7,0
		c1.8,0,2.9,0.4,2.9,2.5c-0.1,7.1,0,14.3,0,21.7c-21.8,0-43.2,0-65.3,0c0-58.5,0-117.1,0-175.6C146.5,35.5,156.6,35.5,166.4,35.5
		L166.4,35.5z"/>
	<path class="st1" d="M299.4,62.9h2.9c1.5,0,3.1,0.3,3.1,2.2c0,2.2-1.8,2.3-3.8,2.3h-2.3L299.4,62.9L299.4,62.9z M297.2,75.3h2.2
		v-6.1h2.4l3.9,6.1h2.4L304,69c2.1-0.2,3.8-1.3,3.8-3.9c0-2.7-1.6-4-5-4h-5.5L297.2,75.3L297.2,75.3z M291.9,68.1
		c0-5.8,4.4-10.3,10.1-10.3c5.6,0,10,4.5,10,10.3c0,5.9-4.4,10.4-10,10.4C296.2,78.5,291.9,74.1,291.9,68.1L291.9,68.1z M289.7,68.1
		c0,7,5.6,12.2,12.3,12.2c6.7,0,12.3-5.2,12.3-12.2c0-6.8-5.6-12.1-12.3-12.1C295.3,56.1,289.7,61.3,289.7,68.1L289.7,68.1z"/>
</g>
</svg>
